<?xml version="1.0" encoding="UTF-8" standalone="no"?>
<svg
   xmlns:dc="http://purl.org/dc/elements/1.1/"
   xmlns:cc="http://creativecommons.org/ns#"
   xmlns:rdf="http://www.w3.org/1999/02/22-rdf-syntax-ns#"
   xmlns:svg="http://www.w3.org/2000/svg"
   xmlns="http://www.w3.org/2000/svg"
   xmlns:sodipodi="http://sodipodi.sourceforge.net/DTD/sodipodi-0.dtd"
   xmlns:inkscape="http://www.inkscape.org/namespaces/inkscape"
   width="100%"
   height="100%"
   viewBox="0 0 110 110"
   version="1.1"
   xml:space="preserve"
   style="fill-rule:evenodd;clip-rule:evenodd;stroke-linejoin:round;stroke-miterlimit:1.41421;"
   id="svg22"
   sodipodi:docname="logo_beztextu.svg"
   inkscape:export-filename="/home/budovi/128.png"
   inkscape:export-xdpi="111.70909"
   inkscape:export-ydpi="111.70909"
   inkscape:version="0.92.4 5da689c313, 2019-01-14"><metadata
     id="metadata28"><rdf:RDF><cc:Work
         rdf:about=""><dc:format>image/svg+xml</dc:format><dc:type
           rdf:resource="http://purl.org/dc/dcmitype/StillImage" /><dc:title></dc:title></cc:Work></rdf:RDF></metadata><defs
     id="defs26" /><sodipodi:namedview
     pagecolor="#ffffff"
     bordercolor="#666666"
     borderopacity="1"
     objecttolerance="10"
     gridtolerance="10"
     guidetolerance="10"
     inkscape:pageopacity="0"
     inkscape:pageshadow="2"
     inkscape:window-width="1920"
     inkscape:window-height="1014"
     id="namedview24"
     showgrid="false"
     units="px"
     fit-margin-top="10"
     fit-margin-right="10"
     fit-margin-bottom="10"
     fit-margin-left="10"
     inkscape:zoom="3.0341309"
     inkscape:cx="-3.5013027"
     inkscape:cy="57.198876"
     inkscape:window-x="1920"
     inkscape:window-y="0"
     inkscape:window-maximized="1"
     inkscape:current-layer="svg22" /><g
     id="g20"><g
       id="g6"><ellipse
         cx="29.256"
         cy="19.327"
         rx="11.463"
         ry="11.227"
         style="fill:#ff5a00;"
         id="ellipse2" /><path
         d="M25.365,55.572c-4.706,-1.471 -8.12,-5.806 -8.12,-10.92c0,-6.322 5.219,-11.454 11.646,-11.454c3.63,0 6.874,1.636 9.01,4.199l0.035,-0.048c9.072,10.475 -1.045,39.346 -22.998,51.289l-1.095,-1.095c8.509,-15.299 13.531,-27.13 11.522,-31.971Z"
         style="fill:#ff5a00;"
         id="path4" /></g><g
       id="g12"><ellipse
         cx="56.92"
         cy="32.589"
         rx="11.463"
         ry="11.227"
         style="fill:#ff5a00;"
         id="ellipse8" /><path
         d="M53.029,68.833c-4.706,-1.47 -8.12,-5.806 -8.12,-10.919c0,-6.322 5.219,-11.455 11.646,-11.455c3.63,0 6.873,1.637 9.01,4.2l0.035,-0.049c9.072,10.476 -1.046,39.347 -22.998,51.289l-1.095,-1.095c8.509,-15.298 13.531,-27.13 11.522,-31.971Z"
         style="fill:#ff5a00;"
         id="path10" /></g><g
       id="g18"><ellipse
         cx="84.156"
         cy="19.327"
         rx="11.463"
         ry="11.227"
         style="fill:#ff5a00;"
         id="ellipse14" /><path
         d="M80.265,55.572c-4.706,-1.471 -8.12,-5.806 -8.12,-10.92c0,-6.322 5.219,-11.454 11.646,-11.454c3.63,0 6.874,1.636 9.01,4.199l0.035,-0.048c9.072,10.475 -1.046,39.346 -22.998,51.289l-1.095,-1.095c8.509,-15.299 13.531,-27.13 11.522,-31.971Z"
         style="fill:#ff5a00;"
         id="path16" /></g></g></svg>